<svg version="1.1" id="Layer_1" xmlns:x="ns_extend;" xmlns:i="ns_ai;" xmlns:graph="ns_graphs;" xmlns="http://www.w3.org/2000/svg" xmlns:xlink="http://www.w3.org/1999/xlink" x="0px" y="0px" viewBox="0 0 300 100.5" style="enable-background:new 0 0 300 100.5;" xml:space="preserve">
 <style type="text/css">
  .st0{fill-rule:evenodd;clip-rule:evenodd;fill:#DEEB52;}
 </style>
 <metadata>
  <sfw xmlns="ns_sfw;">
   <slices>
   </slices>
   <sliceSourceBounds bottomLeftOrigin="true" height="100.5" width="300" x="49.8" y="-250.5">
   </sliceSourceBounds>
  </sfw>
 </metadata>
 <g>
  <path class="st0" d="M13.3,26.4c8.2,0,13.3-5.8,13.3-13.2C26.6,5.8,21.5,0,13.3,0C5.1,0,0,5.8,0,13.2C0,20.6,5.1,26.4,13.3,26.4z
		 M298.8,90.3l-28.5-39.2c-0.6-0.8-0.6-1.7,0-2.5l26.4-38.3c0.8-1.1,1.3-1.9,1.3-3.5c0-1.4-0.9-3.1-2.4-4.6
		c-1.4-1.4-2.9-2.1-4.8-2.1c-1.1,0-2,0.4-3.1,1.2L251.5,29c-0.9,0.7-1.8,0.7-2.6,0L212.8,1.2c-1-0.8-2-1.2-3.1-1.2
		c-1.9,0-3.4,0.7-4.8,2.1c-1.4,1.5-2.4,3.2-2.4,4.6c0,1.6,0.5,2.5,1.3,3.5l26.4,38.3c0.6,0.8,0.6,1.7,0,2.5l-28.5,39.2
		c-0.8,1-1.2,2-1.2,3.2c0,1.8,0.8,3.3,2.2,4.7c1.4,1.4,3,2.3,4.8,2.3c1.2,0,2.2-0.5,3.2-1.2l38.3-27.9c0.8-0.6,1.8-0.6,2.6,0
		l38.3,27.9c1,0.8,2,1.2,3.2,1.2c1.7,0,3.3-0.8,4.8-2.3c1.4-1.4,2.2-2.9,2.2-4.7C300,92.3,299.5,91.3,298.8,90.3L298.8,90.3z
		 M191.7,35.8c1.9,0.6,5.7,1.8,7.2,2.2c1.5,0.5,2.1,1.2,2.1,2.2c0,0.9-0.5,2.4-1.3,4.4c-6,16.2-14.2,33.7-24,48.6
		c-3.7,5.7-7.8,7.3-14.7,7.3c-7.2,0-10.5-1.9-14-7.2c-2.1-3.1-4.2-6.4-7-10.7l-1.3-2.1c-7.6,12.5-20.7,19.9-38.6,19.9
		c-13.5,0-25.7-4.1-32.4-10.3c-6.8,6.3-18.4,10.3-29.6,10.3c-11.1,0-22.9-3.1-29.7-9.9c-5.3-5.3-8.3-12-8.3-23.7V37.5
		c0-1.5,0.5-2.1,2.1-2.1h22.1c1.6,0,2.1,0.6,2.1,2.1V70c0,5.2,1.1,8.7,3.5,11.2c2.3,2.4,6.2,3.9,10.5,3.9c4.5,0,8.5-1.5,11.1-4.3
		c2.9-3.2,4.3-7.6,4.3-15.9V15c0-2.4,0.6-4.1,2-5.4c2-1.9,6.1-2.8,11.1-2.8c4.9,0,9.1,0.9,11.1,2.8c1.4,1.2,2,2.9,2,5.4v20.4h20.8
		c1.6,0,2.1,0.6,2.1,2.1V50c0,1.4-0.5,2.1-2.1,2.1H91.2c-3.6,0-6.7-0.5-9.1-1.6v13c0,7.7,1.6,12.4,5,15.8c3.5,3.6,8.9,5.6,15.9,5.6
		c14.7,0,22.4-9.2,22.4-19.5c0-4.1-1.2-7.4-3.6-11.5c-2.1-3.6-2.7-5.1-2.7-7.2c0-6,10.6-12.4,17.8-12.4c3.5,0,5.2,1.2,7.9,5.5
		c1.8,3,4.9,8.3,8.3,14.4c1.5,2.7,3.2,5.6,4.8,8.4c3.4,6,7.1,12.6,9.1,16.4c6.1-10.4,12.9-27.1,17.4-42c0.5-1.5,1.2-2.2,2.4-2.2
		C187.4,34.6,188.5,34.9,191.7,35.8L191.7,35.8z">
  </path>
 </g>
</svg>