<svg version="1.1" id="Layer_1" xmlns:x="ns_extend;" xmlns:i="ns_ai;" xmlns:graph="ns_graphs;" xmlns="http://www.w3.org/2000/svg" xmlns:xlink="http://www.w3.org/1999/xlink" x="0px" y="0px" viewBox="0 0 232.1 56" style="enable-background:new 0 0 232.1 56;" xml:space="preserve">
 <style type="text/css">
  .st0{fill-rule:evenodd;clip-rule:evenodd;}
 </style>
 <metadata>
  <sfw xmlns="ns_sfw;">
   <slices>
   </slices>
   <sliceSourceBounds bottomLeftOrigin="true" height="56" width="232.1" x="-149.2" y="0">
   </sliceSourceBounds>
  </sfw>
 </metadata>
 <g>
  <path class="st0" d="M68.1,54.3h40v-8.2H76.5V31.9h28.7v-8.1H76.5v-14h31.6V1.6h-40V54.3 M185.1,9.7h19.3v44.6h8.4V9.7h19.3V1.6
		h-47.1V9.7 M39.1,36L0,0v54.3h8.4V19.5L47.5,56V1.6h-8.4V36 M164.1,1.6l-15.5,19.2L133.2,1.6h-10.9l21,25.7l-21,27h10.9l15.5-20.1
		l15.5,20.1H175l-21-27l21-25.7L164.1,1.6">
  </path>
 </g>
</svg>