<svg version="1.1" id="Layer_1" xmlns:x="ns_extend;" xmlns:i="ns_ai;" xmlns:graph="ns_graphs;" xmlns="http://www.w3.org/2000/svg" xmlns:xlink="http://www.w3.org/1999/xlink" x="0px" y="0px" viewBox="0 0 226 48.9" style="enable-background:new 0 0 226 48.9;" xml:space="preserve">
 <style type="text/css">
  .st0{fill:#4D216D;}
 </style>
 <metadata>
  <sfw xmlns="ns_sfw;">
   <slices>
   </slices>
   <sliceSourceBounds bottomLeftOrigin="true" height="48.9" width="226" x="27.7" y="-179">
   </sliceSourceBounds>
  </sfw>
 </metadata>
 <path class="st0" d="M30.9,34.6c7.3,0,13.8-3.8,16.3-11.3c0.2-0.6,0.5-0.8,0.8-0.8c0.6,0,0.8,1,0.8,2.2c0,13.7-10.2,24.2-24.2,24.2
	C10.6,48.9,0,38.5,0,24.6c0-14,10.7-24.4,25.1-24.4c11.7,0,20.6,7,20.6,16.3c0,7.2-5.4,12.4-12.4,12.4c-6.5,0-11.5-4.4-11.5-10.6
	c0-2.5,0.8-4.9,2.3-6.7c0.7-0.9,1.5-1.4,1.9-1.4c0.3,0,0.4,0.3,0.3,0.7c-0.2,0.5-0.3,1.1-0.3,1.8c0,2.8,2.3,4.8,5.2,4.8
	c3.2,0,5.5-2.4,5.5-5.5c0-4-3.9-6.9-9.2-6.9c-7.8,0-13.3,6.6-13.3,14.4C14.1,28.6,21.8,34.6,30.9,34.6 M210.3,35.4
	c-5.1,0-8.5-3.7-8.5-9c0-5.3,3.5-9,8.5-9c5.1,0,8.5,3.7,8.5,9C218.8,31.7,215.4,35.4,210.3,35.4 M210.3,41.7
	c8.9,0,15.7-6.6,15.7-15.3c0-8.8-6.7-15.3-15.7-15.3c-8.9,0-15.7,6.6-15.7,15.3C194.6,35.1,201.4,41.7,210.3,41.7 M173.8,35.4
	c-5,0-8.5-3.7-8.5-9c0-5.3,3.5-9,8.5-9s8.5,3.7,8.5,9C182.3,31.7,178.8,35.4,173.8,35.4 M172.9,41.7c2.4,0,4.3-0.4,6.1-1.3
	c1.1-0.5,1.9-1.2,2.7-1.8c0.3-0.2,0.4-0.2,0.4,0.1v1.6c0,0.6,0.3,1,0.9,1h5.2c0.6,0,0.9-0.3,0.9-0.9V0.9c0-0.6-0.4-0.9-0.9-0.9H183
	c-0.6,0-0.9,0.3-0.9,0.9v13.2c0,0.3-0.2,0.3-0.3,0.2c-2.2-2.1-5.2-3.3-8.8-3.3c-8.1,0-14.7,6.2-14.7,15.3
	C158.2,35.6,164.6,41.7,172.9,41.7 M138.3,35.9c-3.3,0-5.5-1.5-5.5-3.8c0-2,1.4-3.2,4.1-3.5l4.8-0.4c1.6-0.1,3-0.4,3.5-0.5
	c0.4-0.1,0.7,0.1,0.7,0.4V30C145.9,33.5,142.8,35.9,138.3,35.9 M137,41.7c4.7,0,7.1-1.5,8.9-3.1c0.2-0.2,0.5-0.2,0.5,0.1v1.6
	c0,0.6,0.3,1,0.9,1h4.7c0.5,0,0.8-0.3,0.8-0.9V21.9c0-7.1-4.5-10.9-12.6-10.9c-5.3,0-9.4,1.8-12.5,5c-0.4,0.4-0.4,0.8,0.1,1.2
	l3.1,3.1c0.4,0.4,0.8,0.4,1.2,0c2.1-2.2,4.7-3.3,7.7-3.3c3.5,0,5.8,1.7,5.8,4.1c0,1.2-0.7,1.7-2.5,1.8l-6.6,0.4
	c-3.4,0.2-5.7,1-7.4,2.2c-2.2,1.6-3.5,3.9-3.5,6.7C125.8,38,130.2,41.7,137,41.7 M121.9,36.7c-3.2,3.4-7.5,4.9-11.8,4.9
	c-8.8,0-15.7-6.4-15.7-15.3c0-9,7.1-15.3,15.7-15.3c5.7,0,9.5,2.6,11.4,4.3c0.4,0.3,0.4,0.9,0.1,1.3l-2.9,3.6
	c-0.3,0.4-0.9,0.6-1.3,0.2c-2.2-2.1-4.3-3.1-7.2-3.1c-5.2,0-8.6,3.8-8.6,9c0,5.2,3.4,9,8.6,9c2.8,0,5.1-1,7.3-3.3
	c0.5-0.6,1-0.5,1.5-0.1l3,3.4C122.3,35.8,122.3,36.3,121.9,36.7 M74,35.4c-5.1,0-8.5-3.7-8.5-9c0-5.3,3.5-9,8.5-9
	c5.1,0,8.5,3.7,8.5,9C82.5,31.7,79,35.4,74,35.4 M74,41.7c8.9,0,15.7-6.6,15.7-15.3C89.6,17.6,82.9,11,74,11
	c-8.9,0-15.7,6.6-15.7,15.3C58.3,35.1,65.1,41.7,74,41.7">
 </path>
</svg>