<svg version="1.1" id="Layer_1" xmlns:x="ns_extend;" xmlns:i="ns_ai;" xmlns:graph="ns_graphs;" xmlns="http://www.w3.org/2000/svg" xmlns:xlink="http://www.w3.org/1999/xlink" x="0px" y="0px" viewBox="0 0 117.5 129.3" style="enable-background:new 0 0 117.5 129.3;" xml:space="preserve">
 <style type="text/css">
  .st0{fill-rule:evenodd;clip-rule:evenodd;fill:#1F36C7;}
 </style>
 <metadata>
  <sfw xmlns="ns_sfw;">
   <slices>
   </slices>
   <sliceSourceBounds bottomLeftOrigin="true" height="129.3" width="117.5" x="50" y="45.3">
   </sliceSourceBounds>
  </sfw>
 </metadata>
 <g id="logo-sketch">
  <g id="text" transform="translate(49 150)">
   <g id="Mask">
    <path id="path-1" class="st0" d="M64.9-35.1c2.1,0,3.5,1.2,3.6,2.7c0,1.1-0.9,2-2,2c-2.4,0-1.8-1.8-2.8-1.8c-2.2,0-4,3.4-5.7,7.1
				l-0.3,0.6l-0.4,0.9L57-22.8c-0.9,1.8-1.3,2.1-2,2.1c-1.7,0-2-4.5-2.7-6.5c-1.4,3-4.2,6.5-8.6,6.5c-2.6-0.1-5.1-1.4-5.1-5.4
				c0-4.5,3-7.7,6-7.7c2.3,0,3.8,2.4,3.8,4c-0.1,4.4-6,4.5-6,5.4s1.5,1.2,2.4,1.2c3.8,0,6.3-4.9,7.2-8.3c0.2-0.6,0.7-1.8,1.8-1.8
				c1.2,0,0.6,7.4,2.3,7.4C57.2-25.9,58.6-35.1,64.9-35.1z M5.7-45.2c2-0.1,3.6,1.8,3.8,4.8c0.4,8-2.3,11.2-3.7,14.1
				c0.3,1.1,2.2,3,4,3c0.7,0,1.5-0.3,1.7-0.6c-0.2-0.5-0.3-1-0.3-1.9c0-4.6,3.1-8.4,5.7-8.4c2.1,0,3.3,2.7,3.3,4.5
				c0,2.1-1.8,3.8-4.5,5.4c0.5,0.5,1.4,0.8,2.1,0.8c3.8,0.1,5.9-4.5,7.4-8.6c0.3-0.8,0.8-1.9,1.7-1.9c1.6,0,2.2,10.4,4.9,10.4
				c1.1,0,2.1-2.3,2.1-4.1c0.1-1.4-0.4-1.5-0.4-3.4c0-2.1,1.1-3.9,2.7-3.9c1,0,1.3,0.9,1.3,2c-0.1,4.2-3.2,12-7.8,12
				c-3.4,0-3.1-5.8-4.3-5.8c-1.3,0-3.2,5.8-9.9,5.8c-1.1,0-2.3-0.5-3.2-1.6c-1.6,1.1-3,1.5-4.5,1.5c-2.5,0-3.6-2.5-4.6-2.5
				c-1.2,0-2.6,2.5-6.6,2.5c-3.2,0-3.8-4.2-4.9-4.2c-1,0-2.6,4.2-4.3,4.2c-1.4,0-2.2-1.7-3-3.5l-0.2-0.5c-0.8-1.7-1.5-3.2-2.7-3.2
				c-0.9,0-2.8,1.7-4.7,3.4l-0.5,0.5c-1.9,1.7-3.8,3.4-4.6,3.3c-0.7-0.1-1-0.5-0.9-1.2c0.1-0.9,1-3.4,1.3-4.5c0.6-2,1.1-4.2,1.4-4.9
				c0.2-0.7,1-1.2,1.6-1.1c0.3,0,0.4,0.5,0.5,1c0.3,1.6,0.8,3.3,1.3,3.3c0.9,0,4.1-5.8,5.9-5.8c2.3,0,2.5,9.2,5.5,9.2
				c1,0,1.7-1.2,2.4-2.6c0.1-2.4,0.8-5.9,2.8-5.9c1.4,0,2,3.1,1,5.8c-0.1,3.2,2.1,4,3.5,4c1,0,2.7-0.3,4.1-2.4
				c-0.8-1.7-1.3-5.2-1.4-6.4C0.4-39.1,2.9-45.1,5.7-45.2z M-32.8-43.2c1.2-0.4,1.7,0.2,2.2,1.6c0.6,2.1,0.6,4.9,0.4,8.8
				c-0.3,5.4-3.1,11.9-10,11.7c-6-0.1-8.6-3.9-8.8-9.6c-0.1-2.7,0.1-5.4,1.3-9.2c0.7-2,1.2-2.7,3.1-3.1c1.5-0.3,1.3,1.2,1,3
				c-0.8,3.9-1.1,5.8-0.9,10.3c0.3,4.7,2.5,6.6,4.9,6.6c3.7,0.1,5.3-2.8,6-7.1c0.5-3.4,0.1-5-0.2-6.1c-0.2-0.6-0.8-1.9-0.9-2.9
				C-35.1-41.4-33.9-42.9-32.8-43.2z M15.9-31.1c-0.6-0.1-2,0.6-2,2.7c0,1.7,0.6,2.5,0.9,2.8c2-0.6,2.5-2.2,2.4-3.5
				C17.2-30.2,16.6-31.1,15.9-31.1z M43.7-31.2c-2.6,0-2.4,4.1-2,5c1.9-0.3,3.2-1.4,3.5-2.4S45.1-31.2,43.7-31.2z M5.9-41.3l-0.1,0
				c-1.3,0.1-1.9,4.2-1.7,8.5c0.2,2.8,0.6,3.2,1,3.2c0.7,0,2.5-5.1,2.3-9.1c-0.1-1.8-0.6-2.7-1.6-2.6L5.9-41.3z M-5.7-44.4
				c1.2,0,2,0.7,2.1,1.8c0.2,1.5-0.9,3.1-2.4,3.1c-1.3,0-1.9-0.9-2.1-2C-8.2-43.1-7-44.4-5.7-44.4z">
    </path>
   </g>
  </g>
  <path id="fish" class="st0" d="M68.7,83.8c-0.4-0.7-0.1-1.9-1.2-1.9c-0.7,0-0.8,0.6-0.9,1.1c-1.5-0.5-2.8-0.7-4-0.7
		c-0.8,0-1.5,0.1-2.2,0.3c-0.4-0.7-2.2-2.1-3.7-2.6c-0.6,3.3-3.5,5.8-7.8,6.2c-0.2,2.1-1.9,2.7-3.2,2.7c-0.9,0-2.4-0.3-2.5-0.7
		c-0.5-3.1-2.8-4.8-3.9-5.2c0,0.3,0.1,0.7,0.1,1c0,2.6-1.8,4.2-5.1,4.2c-0.5,0-1.2,0-1.7-0.1c3.8,4.2,6.5,2.7,8.2,3.5
		c2.3,1,4.2,4.3,11.6,4.3c2.7,0,5.4-1.1,7.2-2.2c0.3,1.1,1.4,2.1,3.3,2.1c3.1,0,4.9-1,4.9-1.8c0-0.2,0-0.5-0.6-0.5
		c-0.5,0-0.5,0.1-2.2,0.1c-2,0-5.2-0.8-6.7-4.3c-0.3-0.6-0.7-0.6-0.8-0.6c-1,0-2.6,3.6-8.9,3.6c-2.7,0-3.9-1-3.9-1.2
		c0,0,0-0.1,0.1-0.1c0.3,0,1.2,0.1,2.4,0.1c4,0,7.2-1.9,9.2-4c0.7-0.8,1-0.9,1.6-0.9c0.5,0,1,0.4,1.3,1.1c0.9,2.3,3,4.2,5.2,4.2
		c3,0,3.1-5.2,3.8-5.5c0.1,0,0.3,0.1,0.4,0.1c0.4,0,0.9-0.3,0.9-0.9C69.7,84.4,68.8,84.2,68.7,83.8L68.7,83.8z M63.7,87.7
		c-0.8,0-1.4-0.6-1.4-1.4c0-0.8,0.6-1.5,1.4-1.5c0.8,0,1.4,0.7,1.4,1.4C65.2,87.1,64.5,87.7,63.7,87.7z	">
   <animate accumulate="none" additive="replace" attributeName="fill" begin="o1.begin+4s" calcMode="linear" dur="1s" fill="remove" restart="always" values="#1F36C7;#00D7C4;#1F36C7">
   </animate>
  </path>
  <path id="chilli_pepper" class="st0" d="M53.3,73.8c0.7,0,1,0.6,1.1,1.2c0.2-0.2,0.5-0.3,0.8-0.3c0.7,0,1.1,0.5,1.1,1.1
		c0,0.4-0.2,0.7-0.5,0.9c0.4,0.2,0.7,0.5,0.7,0.9c0,0.5-0.4,0.9-1,0.9c-0.5,0-0.9-0.6-1.4-0.6c-0.3,0-0.7,0.1-0.8,0.3
		c0.2,0.5,0.3,0.9,0.3,1.4c0,2.6-3.5,4.7-7.2,4.7c-3.6,0-5-2.1-5-3c0-0.2,0.1-0.3,0.4-0.3c0.6,0,0.7,0.2,2.4,0.2c3.9,0,2.5-5,6.2-5
		c0.5,0,1.6,0.3,2,1c0.3-0.3,0.4-0.7,0.4-1c0-0.6-0.4-1-0.4-1.5S52.8,73.9,53.3,73.8z	">
   <animate accumulate="none" additive="replace" attributeName="fill" begin="o1.begin+4.05s" calcMode="linear" dur="1s" fill="remove" restart="always" values="#1F36C7;#EB0000;#1F36C7">
   </animate>
  </path>
  <path id="swirl" class="st0" d="M30.1,71.2c4.4,0,7.8,3.7,7.8,9c0,2.4-1.3,5.9-6.6,5.9c-6.3,0-10.1-5.3-10.1-8.7
		c0-2.9,1.9-4.7,3.1-5c-1.3,5.2,1.6,10.2,7.4,10.2c2.9,0,4.3-1.4,4.3-3.9c0-2.8-1.9-5.5-5.2-5.5c-1.6,0-2.8,0.9-2.8,2.2
		c0,2.1,1.8,3.4,3.7,3.4c1.2,0,2-0.5,2-1.3c0-0.1,0-0.3-0.1-0.4c-0.1,0.1-0.4,0.1-0.8,0.1c-1.5,0-2.7-0.8-2.7-1.7
		c0-0.7,0.5-1.1,1.1-1.1c2.2,0,3.7,2.2,3.7,3.8s-1.2,3-3.2,3c-4.3,0-6.2-3.5-6.2-5.8C25.6,72.9,27.7,71.2,30.1,71.2z	">
   <animate accumulate="none" additive="replace" attributeName="fill" begin="o1.begin+4.1s" calcMode="linear" dur="1s" fill="remove" restart="always" values="#1F36C7;#EB0000;#1F36C7">
   </animate>
  </path>
  <g id="packaging">
   <path class="st0" d="M82.8,83c-0.9,0.7-3.1,2.3-6.8,2.3c-2,0-2.8-0.6-3.1-0.6c-0.4,0-0.8,0.4-1.2,0.8c-0.9,1-2,2.8-2,4.9
			c0,1.4,1.1,2.8,3.2,2.8c6.8,0,11.8-4.2,11.8-7.5C84.8,83.8,83.6,83,82.8,83z M79.3,89.5l-3.9,1.1c0.3-0.8,0.5-1.7,0.5-2.6
			c0-0.3,0-0.5-0.1-0.8h0.5c2.9,0,4.1-1.1,4.3-1.1s0.4,0.1,0.4,0.7C81,87.6,80.6,88.7,79.3,89.5L79.3,89.5z">
   </path>
   <path class="st0" d="M77,83.8c1.6,0,3-0.4,3.9-1.2c0.3-0.2,0.4-0.6,0.4-1v-0.8c0-1-1.6-1.6-3.8-1.6c-2.6,0-4,1.2-4,1.7v1.6
			C73.5,83.1,75,83.8,77,83.8L77,83.8z">
   </path>
   <animate accumulate="none" additive="replace" attributeName="fill" begin="o1.begin+4.15s" calcMode="linear" dur="1s" fill="remove" restart="always" values="#1F36C7;#001F82;#1F36C7">
   </animate>
  </g>
  <path id="clothes" class="st0" d="M89.2,66.8c-5.3,0-3.9,4.5-10.1,5.9c-1.1,0.2-1.5,0.6-1.5,1.1c0,0.9,0.5,2.1,1.2,2.1
		c2.7,0,6.8-5.5,7.6-5.5c0.3,0,0.6,0,0.6,0.8c0,2-5.8,4.6-5.8,6c0,0.8,2,2.6,4.1,2.6c2.9,0,5.5-5.8,6.1-5.8c0.5,0,0.6,0.3,0.6,0.7
		c0,1.6-2,4.7-5.4,6c-0.7,0.3-0.8,0.6-0.8,0.8c0,0.8,0.9,1.9,1.7,1.9c1,0,7.7-5.8,7.7-10.4C95.4,68.7,92.1,66.8,89.2,66.8L89.2,66.8
		z M91.6,71.8c-0.4,0-0.8-0.1-1-0.3c-0.5-0.2-1.3-0.9-1.3-1.9s0.5-1.3,1-1.3c1.5,0,3.2,1.3,3.2,2.4C93.5,71.6,92.7,71.8,91.6,71.8z	
		">
   <animate accumulate="none" additive="replace" attributeName="fill" begin="o1.begin+4.2s" calcMode="linear" dur="1s" fill="remove" restart="always" values="#1F36C7;#9C44C0;#1F36C7">
   </animate>
  </path>
  <path id="spoon" class="st0" d="M41.6,74.2h-0.9c-0.3,0-0.8-0.1-1.1-0.3c-0.6-0.5-0.8-3.2-1.8-4.8c-1.2-1.8-2.5-2.3-4.2-2.3
		c-1.2,0-2.6,0.7-2.6,1.7c0,0.6,0.3,1,2.6,1.6c2.9,0.7,4.3,2.3,4.6,4.1c0.3,1.8,0.6,3.2,1.3,3.9c0.9,1,2.6,1.9,4.2,1.9
		c1.3,0,2.3-0.4,2.3-1.6C45.9,77.1,44.1,74.2,41.6,74.2z M43.5,78.1c-1.1,0-2.7-1.1-2.7-1.8c0-0.5,0.5-0.8,0.9-0.8
		c0.9,0,2.5,1.1,2.5,2C44.2,77.8,44,78.1,43.5,78.1z	">
   <animate accumulate="none" additive="replace" attributeName="fill" begin="o1.begin+4.25s" calcMode="linear" dur="1s" fill="remove" restart="always" values="#1F36C7;#E60067;#1F36C7">
   </animate>
  </path>
  <g id="wave">
   <path class="st0" d="M63.4,70.5c-0.7,0-0.7,1.1-0.7,1.5c0,0.4,0,0.5-0.3,0.5s-0.5-0.1-0.8-0.1c-0.2,0-0.4,0.2-0.4,0.5
			c0,1.5,1.9,2.7,3.8,2.7c2.5,0,3.7-1.1,4.4-1.1c0.3,0,0.4,0.3,0.4,0.5c0,0.4-0.4,0.9-0.4,1.1c0,0.6,1.2,0.1,1.2,0.8
			c0,0.9-1.5,1.6-3.8,1.6c-4.5,0-7.4-3.1-7.4-6c0-5.4,5.8-3.7,5.8-5.8c0-0.7-0.7-1.1-1.2-1.1c0.6-0.8,1.4-0.9,2.2-0.9
			c0.6,0,1.2,0.1,1.7,0.1c0.7,0,1.4-0.3,1.4-1.1c0-0.5-0.4-1.1-2.1-1.3c0.2-1.1,2.5-0.5,2.5-1.5c0-0.7-1.3-1.2-2.9-1.2
			c-6.2,0-10.6,5.1-10.6,10.6c0,5,3.6,10.5,10.3,10.5c6.5,0,9.6-5.3,9.6-9.3c-1.2,1.1-4.4,1.4-6,1.4C65.4,73,64.1,70.5,63.4,70.5z">
   </path>
   <path class="st0" d="M68.5,71.2c1,0,1.7-0.8,1.7-1.7c0-1.4-1.4-2.7-3.5-2.7c0.4,0.4,0.5,0.7,0.5,1.1c0,0.5-0.3,1.1-0.3,1.7
			C66.9,70.5,67.5,71.2,68.5,71.2z M78.6,64.4c0.3,0.4,0.4,0.8,0.4,1.2c0,1-0.7,2-0.7,3c0,1.2,0.9,2.2,2.3,2.2
			c1.5,0,2.5-1.2,2.5-2.6C83,66.2,81.3,64.6,78.6,64.4z M71.4,60.6c0.5,0.6,0.7,1.2,0.7,1.9c0,1.6-1.2,3.2-1.2,4.7
			c0,2,1.3,3.3,3.2,3.3c2,0,3.2-1.7,3.2-3.6C77.3,64.2,75.2,61.3,71.4,60.6z M74.2,66.3c-0.5,0-0.9-0.4-0.9-0.9
			c0-0.3,0.2-0.7,0.2-1.1c0.1-0.5,0-0.9,0.3-0.9c0.6,0,1.3,1.1,1.3,1.8C75.1,65.8,74.8,66.3,74.2,66.3z">
   </path>
   <animate accumulate="none" additive="replace" attributeName="fill" begin="o1.begin+4.3s" calcMode="linear" dur="1s" fill="remove" restart="always" values="#1F36C7;#47C8FF;#1F36C7">
   </animate>
  </g>
  <g id="bowl">
   <path class="st0" d="M51.1,62c-1.6-0.6-2.3-1.5-2.7-3.4c-0.8,1.1-1.2,2.1-1.2,2.7c0,2.4,3.3,2.4,3.3,4c0,0.9-1.7,1.9-3.9,1.9
			c-2.5,0-4.3-0.4-5.9-2c-0.4-0.4-0.6-0.8-1.1-0.8c-0.6,0-0.9,1-0.9,2c0,3.4,3.3,7.5,7.9,7.5c5.7,0,8-3.9,8-7.1
			C54.7,64.9,54.3,63.2,51.1,62z M49.5,71.6c-0.5,0-0.6-0.2-0.6-0.7c0-0.3,0.1-0.9,0.1-1.4c0-1.2,0.5-1.1,1.7-1.7
			c0.9-0.4,1.2-0.9,1.5-0.9s0.6,0.2,0.6,0.7C52.8,69.4,50.8,71.6,49.5,71.6z">
   </path>
   <path class="st0" d="M43.8,56.2c-0.6,0-1.6-0.6-2.6-1.4c-1.1,1.1-1.9,2.6-1.9,4.3c0,3.5,3.7,6.4,7.3,6.4c0.6,0,1.2-0.1,1.8-0.2
			c-2-0.2-3.2-1.7-3.2-3.5c0-2.3,2.6-4.4,2.6-6.2c0-2.2-2.7-2.4-2.7-4.2c0-1.5,2.6-2.6,2.5-5c0-1.4-1.4-3.1-3.3-4.1
			c0.3,0.6,0.5,1.4,0.5,1.9c0,2.8-5.4,4-5.4,6.2c0,2.8,5.2,3.9,5.2,5.2C44.6,55.9,44.4,56.2,43.8,56.2z">
   </path>
   <animate accumulate="none" additive="replace" attributeName="fill" begin="o1.begin+4.35s" calcMode="linear" dur="1s" fill="remove" restart="always" values="#1F36C7;#9C44C0;#1F36C7">
   </animate>
  </g>
  <path id="heart" class="st0" d="M98.3,58c1.8,0,3.2,2.3,3.2,5c0,2.9-1.4,6-3.8,8.2c0-4.8-5.9-3.3-5.9-6.8c0-1.5,1.1-2.5,2.4-2.5
		c1.1,0,2,0.3,2.7,1c-0.6-0.6-1-1.5-1-2.3C95.9,59.3,96.7,58,98.3,58L98.3,58z	">
   <animate accumulate="none" additive="replace" attributeName="fill" begin="o1.begin+4.4s" calcMode="linear" dur="1s" fill="remove" restart="always" values="#1F36C7;#EB0000;#1F36C7">
   </animate>
  </path>
  <path id="flower" class="st0" d="M27.5,62.9c-0.5,0.1-0.9,0.2-1.2,0.5c-0.3-1.1-1.3-2.1-2.7-1.8c-1.2,0.2-2.1,1.3-1.9,2.7
		c0,0.2,0.1,0.5,0.2,0.7c0,0-0.2,0-0.4,0.1c-1,0.2-2.2,1.2-2,2.7c0.2,1.3,1.3,2.2,2.6,2.1c0.5-0.1,0.9-0.2,1.2-0.4
		c0.3,1.2,1.3,1.9,2.6,1.8c1.3-0.2,2.2-1.3,2.1-2.6c0-0.4-0.1-0.6-0.2-0.8h0.3c1.3-0.3,2.2-1.3,2.1-2.6
		C29.8,63.7,28.7,62.7,27.5,62.9L27.5,62.9z M24.9,67.8c-0.8,0.1-1.4-0.5-1.5-1.2c-0.1-0.8,0.4-1.5,1.2-1.6c0.8-0.1,1.4,0.5,1.5,1.2
		C26.2,67,25.7,67.7,24.9,67.8z	">
   <animate accumulate="none" additive="replace" attributeName="fill" begin="o1.begin+4.45s" calcMode="linear" dur="1s" fill="remove" restart="always" values="#1F36C7;#F752C7;#1F36C7">
   </animate>
  </path>
  <g id="transformation">
   <path class="st0" d="M92.3,56.9c0-0.5,1.2-1.7,1.2-2.1c0-0.1-0.1-0.2-0.2-0.2c-0.5,0-2.2,1.3-4.7,1.3c-1,0-1.7-0.1-1.7-0.9
			c0-0.7,0.6-1.3,1.6-1.7c1.1-0.5,3.3-0.5,3.3-1c0-0.4-2.1-0.4-2.1-0.8c0-0.5,0.8-1.7,0.8-2.2c0,0,0-0.2-0.1-0.2
			c-0.4,0-1.4,1.2-2,1.2s-1.1-1.5-1.6-1.5c-0.1,0-0.3,0.1-0.3,0.4c0,0.6,0.3,1.7,0.3,3.2c0,1.3-0.7,2.4-1.4,2.4
			c-0.9,0-1.2-1.1-1.2-2c0-1.3,0.7-2.8,0.7-4.2c0-0.3-0.1-0.4-0.3-0.4c-0.5,0-1.3,1.5-1.9,1.5c-0.4,0-1.1-1.8-1.7-1.8
			c-0.1,0-0.2,0.3-0.2,0.7c0,0.5,0.1,1.2,0.1,1.5c0,0.4-0.5,0.5-1.1,0.5c-0.4,0-1.2,0-1.2,0.3s0.8,0.6,1.5,1.1
			c1.3,0.9,3.4,1.8,3.4,3.9c0,1.9-2.7,3.2-4.6,3.6c-0.9,0.1-1.8,0.3-1.8,0.6c0,0.4,2.4,0.5,2.4,1c0,0.3-1.1,1.7-1.1,2.1
			c0,0.1,0.1,0.1,0.1,0.1c0.4,0,1.6-1,2.1-1c0.7,0,0.6,2.1,1.1,2.1c0.6,0,0.4-3.1,0.6-3.9c0.4-1.4,1.4-2.8,2.3-2.8
			c1.1,0,1.2,1.9,1.2,2.8c0,1.8-1.3,3.7-1.3,4.6c0,0.1,0.1,0.2,0.2,0.2c0.4,0,1.3-1.2,1.8-1.2s1.6,2,2,2c0.2,0,0.3-0.2,0.3-0.4
			c0-0.6-0.3-1.6-0.3-2.2c0-0.7,2.3-0.3,2.3-0.8c0-0.2-1-0.6-1.6-1c-1.3-0.8-2.8-2.5-2.8-3.9c0-0.5,0.3-0.9,0.7-0.9
			c2.8,0,4,4.3,4.5,4.3s0.2-1.9,0.4-2.2c0.1-0.1,0.4-0.2,0.7-0.2c0.5,0,1.1,0.1,1.5,0.1c0.3,0,0.4,0,0.4-0.1
			C94.5,58.2,92.3,57.5,92.3,56.9L92.3,56.9z">
   </path>
   <path class="st0" d="M81.2,55.7c0-0.9-3.9-3.9-4.7-3.9c-0.2,0-0.3,0.1-0.3,0.3c0,0.3,0.1,0.7,0.1,1c0,0.7-0.3,0.8-1,0.8
			c-0.8,0-2.1-0.3-2.1-1.6c0-2.5,4.8-1.9,5.3-4.2c-2.1,0-3.1-1.4-4.5-1.4c-0.5,0-1.5,0.3-1.5,1.6c0,0.4,0.1,1.1,0.1,1.7
			s-0.1,1-0.8,1c-0.6,0-0.7-0.7-0.7-1.5c0-0.7,0.1-1.5,0.1-2c0-3.7-4.1-2.2-4.5-5.2c-1,1.8-1.3,3.1-1.3,4.2c0,3.9,5.3,3.5,5.3,6.2
			c0,0.7-0.5,1.1-1,1.1c-0.9,0-1.5-1.9-2.9-1.9c-0.7,0-1.2,0.5-1.2,1.6c0,0.8,0.2,1.4,0.2,2.2c0,1.6-0.7,2.3-1.4,3
			c4.8-0.4,5.1-4,6.5-4c0.4,0,0.6,0.3,0.6,0.5c0,0.6-1,1.6-1,2.6c0,1.3,1.5,2,2.5,2c1.2,0,1.6-0.4,1.6-1.2c0-0.9-1.6-2.1-1.6-3.1
			c0-0.5,0.5-0.6,1.2-0.6c1.5,0,2,0.2,2,0.5c0,0.4-0.6,1.2-0.6,1.4c0,0.1,0.1,0.4,0.4,0.4C77.1,57.4,81.2,56.5,81.2,55.7z">
   </path>
   <animate accumulate="none" additive="replace" attributeName="fill" begin="o1.begin+4.5s" calcMode="linear" dur="1s" fill="remove" restart="always" values="#1F36C7;#00D7C4;#1F36C7">
   </animate>
  </g>
  <path id="hair" class="st0" d="M30.7,42.2c-0.7,1.3-0.9,3-0.9,4c0,6.1,7.3,11.8,7.3,15.6c0,1.5-1.1,3.3-3.1,3.3
		c-1.8,0-2.8-1.4-2.8-2.6c0-0.9,0.6-1.7,0.9-1.7c0.1,0,0.1,0.1,0.1,0.3c0,0.5,0.4,1.2,1.2,1.1c0.8,0,1.2-0.5,1.2-1.2
		c0-3-6-8.2-6-15.3c-0.3,0.8-0.7,1.8-0.7,3.3c0,3.4,2.5,7,2.5,10.3c0,1.3-1,2.5-2.3,2.5c-1.5,0-2-1.2-2-1.9c0-0.5,0.2-1,0.4-1
		s0.1,0.8,0.9,0.8c0.9,0,1.2-0.6,1.2-1.7c0-3-1.7-5.1-1.7-8.2c0-0.5,0-1,0.1-1.4c-0.9,1.1-1,2.7-1,4.1v3.7c0,2.5-1.2,3.6-2.7,3.6
		c-1,0-1.9-0.8-1.9-2.1c0-0.2,0.1-0.8,0.3-0.8c0.3,0,0.5,0.8,1.3,0.8c1.6,0,1.7-1.5,1.7-4.6C24.5,49.3,25.9,45.2,30.7,42.2
		L30.7,42.2z	">
   <animate accumulate="none" additive="replace" attributeName="fill" begin="o1.begin+4.55s" calcMode="linear" dur="1s" fill="remove" restart="always" values="#1F36C7;#CF98D9;#1F36C7">
   </animate>
  </path>
  <path id="hand" class="st0" d="M20.8,40.4c0.5,0,0.7,0.5,0.7,0.9c0,1.7-2.2,6.7-2.2,8.1c0,0.2,0.1,0.4,0.3,0.4
		c0.9,0,2.7-3.9,3.3-5.8c0.3-1,0.8-1.5,1.2-1.5c0.4,0,0.7,0.4,0.7,1.2c0,1.9-1.8,6.5-3.4,9.5c-1.2,2.4-3.2,5.8-3.2,7.7
		c0,1,0.2,2,1.6,3.2c-2.3-0.1-3.3-0.4-4.2-2.1c-3.9,7.6,7.2,6.9,3.4,13.7c-0.7-1.2-6.2-2.5-6.2-9.6c0-6.1,5.5-9.7,5.5-12.3
		c0-0.5-0.2-0.9-0.7-1.3c-1.2-1-1.2-1.8-2.2-1.8c-0.7,0-1.5,1.6-0.7,3c0.3,0.5,0.5,0.8,0.5,1.2c0,1-1.6,3.7-2.7,3.7s-2-2.8-2-7.2
		c0-3.9,0.9-7.9,2-7.9c0.3,0,0.4,0.2,0.4,0.5c0,0.5-0.1,1.4-0.1,3c0,1.7,0.4,1.8,0.7,1.8c1.2,0,1-7.5,3-7.5c0.5,0,0.6,0.5,0.6,1
		c0,1.7-0.8,4.2-0.8,5.5c0,0.7,0.2,0.9,0.5,0.9C17.8,48.6,19.3,40.4,20.8,40.4L20.8,40.4z	">
   <animate accumulate="none" additive="replace" attributeName="fill" begin="o1.begin+4.6s" calcMode="linear" dur="1s" fill="remove" restart="always" values="#1F36C7;#FFC000;#1F36C7">
   </animate>
  </path>
  <path id="plant" class="st0" d="M102.1,50.2c-1.7,0-2.6,3-4.3,3.1c1-4.3,5.3-6.6,5.3-10.6c0-4.6-3.8-6.2-5.4-7.2
		c-2.6-3.8-4.5-6.8-8.8-6.8c-1.8,0-3,0.3-4.2,0.3c-2.4,0-3.2-0.9-3.3-0.9c0,0-0.1,0-0.1,0.2c0,3.4,1.8,11,9.4,11
		c4.1,0,5.8-1.6,6.8-1.6s4.3,1.1,4.3,5c0,2.1-1.7,4.3-2.3,4.3s-1.2-1-1.2-2c0-1.1,0.6-3.2,0.6-4.5c0-0.5-0.1-0.7-0.4-0.7
		c-0.6,0-3.7,2-3.7,4.4c0,2.1,3.1,3.4,4.3,4c-1.2,1.9-1.9,3.2-2.4,5c0-1.4-1.3-4.1-1.7-5.3c-1.9-5.4-2.6-6.4-6.7-6.9
		c0.6,2.2,7.6,7.4,7.6,12.7c0,0.3,0,0.8-0.1,1c-2.1-6.2-5.7-7.7-7-9.2c-2.1-2.4-0.9-4.7-4.3-6c0.2,0.3,0.3,0.7,0.3,1
		c0,1.2-0.6,2.6-0.6,3.6c0,3.8,4.3,2.6,6.9,4.7c2.5,2,3.9,5.3,4.9,9c1-1.6,1.6-3.6,3.3-3.6c1.1,0,1.5,1.4,1.5,2.5v0.5
		c1.7-1.5,2.6-3.9,2.6-5.5C103.3,50.9,102.9,50.2,102.1,50.2L102.1,50.2z M95.3,36.1c-0.4,0-1-0.2-1.5-0.2c-1.2,0-2.1,1.7-2.7,1.7
		c-0.2,0-0.3-0.2-0.3-0.4c0-0.7,1.2-1.5,1.2-2c0-0.3-0.5-0.4-0.7-0.4c-1.2,0-2.9,1.7-3.9,1.7c-0.2,0-0.4-0.1-0.4-0.3
		c0-0.5,1.3-1.1,1.3-1.6s-0.5-0.5-0.9-0.5c-0.6,0-1.8,0.3-2.5,0.3c-0.4,0-0.7-0.1-0.7-0.4c0-0.7,2.3-0.3,2.3-1.1
		c0-0.4-0.7-1.2-0.7-1.6c0-0.2,0.2-0.3,0.4-0.3c0.8,0,1.7,2.3,2.6,2.3c0.4,0,0.5-0.3,0.5-0.8s-0.1-0.7-0.1-1.1s0.2-0.5,0.3-0.5
		c0.6,0,1.1,3.2,2.8,3.2c0.7,0,0.2-2,0.9-2c0.4,0,0.5,0.6,0.5,0.9c0.2,2.1,2.1,2.2,2.1,3C95.7,35.9,95.6,36.1,95.3,36.1L95.3,36.1z	
		">
   <animate accumulate="none" additive="replace" attributeName="fill" begin="o1.begin+4.65s" calcMode="linear" dur="1s" fill="remove" restart="always" values="#1F36C7;#00D7C4;#1F36C7">
   </animate>
  </path>
  <g id="particles">
   <path class="st0" d="M71.4,31.4c0.8,0,1.4,0.6,1.4,1.3c0,0.7-0.6,1.3-1.4,1.3c-0.7,0-1.4-0.6-1.4-1.3C70,32,70.7,31.4,71.4,31.4z
			 M80.6,44c-0.7,0-1.4,0.6-1.4,1.3c0,0.8,0.7,1.3,1.4,1.3c0.8,0,1.4-0.6,1.4-1.4C82,44.5,81.4,44,80.6,44z M76,41.5
			c-1.4,0-2.5,1.1-2.5,2.4s1.1,2.4,2.5,2.4s2.5-1.1,2.5-2.4S77.4,41.5,76,41.5z M71.6,40.4c-0.8,0-1.4,0.6-1.4,1.4s0.7,1.4,1.4,1.4
			c0.8,0,1.4-0.6,1.4-1.4S72.4,40.4,71.6,40.4z M80.4,42.6c0.9,0,1.7-0.7,1.7-1.6s-0.8-1.6-1.7-1.6s-1.7,0.7-1.7,1.6
			C78.7,41.8,79.5,42.6,80.4,42.6z M67.4,37.5c-1.1,0-2.1,0.9-2.1,2s0.9,2,2.1,2c1.1,0,2.1-0.9,2.1-2C69.4,38.4,68.5,37.5,67.4,37.5
			z M74.9,39c0,0.8,0.6,1.4,1.4,1.4s1.4-0.6,1.4-1.4s-0.6-1.4-1.4-1.4S74.9,38.3,74.9,39z M72.1,39.4c1.2,0,2.2-0.9,2.2-2.1
			s-1-2.1-2.2-2.1s-2.2,0.9-2.2,2.1C69.9,38.4,70.8,39.4,72.1,39.4z M80.1,38c0.8,0,1.5-0.7,1.5-1.5s-0.7-1.5-1.5-1.4
			c-0.8,0-1.5,0.7-1.5,1.5S79.3,38,80.1,38z M68,36c0.8,0,1.4-0.6,1.4-1.4s-0.6-1.4-1.4-1.4s-1.4,0.6-1.4,1.4
			C66.5,35.4,67.2,36,68,36z M76.2,35.9c1.3,0,2.3-1,2.3-2.2s-1-2.2-2.3-2.2s-2.3,1-2.3,2.2S74.9,35.9,76.2,35.9z M77.9,30.7
			c0.8,0,1.4-0.6,1.4-1.3c0-0.7-0.6-1.3-1.4-1.3c-0.8,0-1.4,0.6-1.4,1.3C76.6,30.2,77.2,30.7,77.9,30.7z">
   </path>
   <animate accumulate="none" additive="replace" attributeName="fill" begin="o1.begin+4.7s" calcMode="linear" dur="1s" fill="remove" restart="always" values="#1F36C7;#FFA91F;#1F36C7">
   </animate>
  </g>
  <path id="tree" class="st0" d="M37.5,32.5c0.9,0,2.5,1.5,2.9,3.1c-0.2,0-0.4-0.1-0.5-0.1c-1.2,0-1.8,1.1-2.7,3
		c2.1-1.4,4-2.5,6.2-2.5c1.9,0,3.4,1.1,3.4,2.8c0,0.7-0.4,1.5-0.8,2.3c-0.3-1.6-1.6-2.3-3.9-2.3c-1.3,0-2.9,0.2-4.2,0.7
		c4.1,0.6,4.7,2,4.7,3.3c0,2.2-2.3,3.3-3.8,4c0.1-0.6,0.3-1.3,0.3-2c0-1.3-0.5-2.9-2.6-4.3c-0.3,1.4-1.5,2.3-1.5,3.4
		c0,0.4,0.3,0.6,0.5,0.6c0,0.6-0.3,2.4-0.3,2.9c0,0.9,0.2,1.1,0.7,1.2c0.3,0.8,0.3,2.2,0.5,2.9c0.1,0.4,0.4,0.5,0.7,0.5
		c0.3,0.7,0.7,1.8,1.3,2.2c0.1,0.1,0.3,0.4,0.3,0.6c0,0.6-1,1.3-1.6,1.3c-0.2,0-0.5-0.1-0.8-0.8c-0.2-0.5-2-1.6-2.1-2.2
		c0.1-0.1,0.2-0.3,0.2-0.6c0-1-1.6-2.1-1.6-3.7c0.2-0.1,0.4-0.4,0.4-0.7c0-0.9-0.9-2.6-0.9-3.8c0.4,0,0.6,0,0.6-0.6
		c0.1-1.2,0.3-2.9,1.4-3.9c-0.3,0-0.6-0.1-1-0.1c-2.2,0-5.5,1.2-6.8,4c-0.1-0.4-0.1-0.8-0.1-1.2c0-2.3,1.4-3.8,2.5-4.3
		c0.5-0.2,1.2-0.3,1.9-0.3c1.2,0,2.5,0.2,3.9,0.5c-1.2-1.6-3.1-2.7-4.7-2.7c-0.7,0-1.3,0.2-1.5,0.8c-0.1-0.3-0.1-0.8-0.1-1.2
		c0-1.7,0.6-2.7,2.1-2.7c2.2,0,4.2,2.6,5.3,5v-0.3c0-3.4,0.1-5.1,1.5-5.2L37.5,32.5L37.5,32.5z	">
   <animate accumulate="none" additive="replace" attributeName="fill" begin="o1.begin+4.75s" calcMode="linear" dur="1s" fill="remove" restart="always" values="#1F36C7;#00D7C4;#1F36C7">
   </animate>
  </path>
  <g id="bee">
   <path class="st0" d="M9.7,38.2c0,2.7,0.9,4,2.4,4c1.2,0,2.8-0.8,4.7-2.4c-1.5,0.3-2.6,0.5-3.6,0.5C11.9,40.3,10.8,39.8,9.7,38.2z
			 M20.1,34.5c-0.9,0.2-2.6,1.2-2.6,3c0,1.3,1,2.1,2.3,2.1c0.7,0,1.2-0.1,1.5-0.4c-1-1-1.4-2-1.4-3.1C19.9,35.4,20,34.9,20.1,34.5z
			 M23.2,31.6c-0.8,0.9-1.7,2.5-1.7,4.1c0,1.9,1.2,3.5,3.1,3.5c1.8,0,2.7-1.5,2.7-3C27.4,33.8,25.1,32.1,23.2,31.6z M11,35v0.5
			c0,1.7,0.9,2.6,2.2,2.6c0.9,0,2-0.5,3-1.7c-0.4,0.1-0.9,0.1-1.3,0.1C13.4,36.6,11.9,36.2,11,35z M18.4,25.8
			c-1.2,0-2.7,0.1-4.3,1.1c-3.2,2-2.8,5.2-3.3,6.1c-0.1,0.1-0.1,0.2-0.1,0.4c0,0.3,0.4,0.7,0.7,0.7S11.9,34,12,34
			c0.9,0,1.9,0.6,3.4,0.6c0.9,0,1.9-0.3,3.1-0.9c2.7-1.3,3.7-4.5,3.7-5c0-0.7-0.6-0.6-1-1.2c-0.5-0.6-0.3-1.2-0.6-1.5
			c-0.2-0.2-0.7-0.2-1.4-0.2C19.2,25.8,18.4,25.8,18.4,25.8z M16.2,32.9c-1.2,0-2.6-1.5-2.6-2.8c0-0.7,0.6-1.6,1-1.6
			c0.1,0,0.2,0.1,0.3,0.4c0.2,1.7,1.4,2.7,2.5,3.2c0.1,0.1,0.2,0.1,0.2,0.2C17.5,32.6,16.8,32.9,16.2,32.9z M20.6,29.6
			c0,0.5-0.3,1.1-0.9,1.1c-1.3,0-2.3-1.9-2.4-3c0-0.7,0.4-0.7,1-0.7c0.3,0,0.4,0,0.6,0.1c0.3,0.2,0.3,0.9,0.7,1.4
			C19.9,28.9,20.6,29.3,20.6,29.6z M23.4,28c0,0.8,0.7,1.4,1.5,1.4s1.5-0.6,1.5-1.4s-0.7-1.4-1.5-1.4C24.1,26.5,23.4,27.2,23.4,28z
			 M22.9,26.2c0.8,0,1.5-0.6,1.5-1.4s-0.7-1.4-1.5-1.4s-1.5,0.6-1.5,1.4C21.5,25.5,22.1,26.2,22.9,26.2z M12.8,25.5
			c1.3,0,2.4-0.8,2.4-0.8c-2.2-0.6-3.4-2.1-3.4-4.2v-0.6c-1.4,0.6-2,1.7-2,2.8C9.9,24.4,11.2,25.5,12.8,25.5z M19.3,23.9
			c0.2-0.6,0.3-1.3,0.3-2.1c0-1.7-0.8-4.3-3.4-4.3c-1.5,0-2.5,1.1-2.5,2.4C13.8,22.8,16.8,23.9,19.3,23.9z">
   </path>
   <animate accumulate="none" additive="replace" attributeName="fill" begin="o1.begin+4.8s" calcMode="linear" dur="1s" fill="remove" restart="always" values="#1F36C7;#FFE300;#1F36C7">
   </animate>
  </g>
  <g id="ice_cream">
   <path class="st0" d="M101.5,23c-1.6,3.2-5.6,3.9-6.9,3.7c0.4,3.3,5.3,7.7,6.6,7.6c0.9-0.1,1.2-4.3,1.2-7.6
			C102.4,24.8,102.5,23.3,101.5,23L101.5,23z M101.6,19.9c0-1.2-0.5-2.1-1.9-2.3c0.2,0.3,0.3,0.6,0.3,1.1c0,1.9-2.8,4-5.9,4
			c-1.1,0-1.5,0.8-1.4,1.2c0,1,0.9,1.4,2.2,1.4C98.4,25.2,101.6,22.4,101.6,19.9L101.6,19.9z">
   </path>
   <path class="st0" d="M94.1,21.4c1.4,0,4.4-1.2,4.4-2.8c0-0.5-0.2-1-1-1c-1.1,0-2.6,1.1-4.1,1.1c-0.5,0-1.1,0-1.7-0.2
			c0.6,0.4,0.5,1.4,0.8,2.1C93,21.4,93.6,21.4,94.1,21.4z">
   </path>
   <animate accumulate="none" additive="replace" attributeName="fill" begin="o1.begin+4.85s" calcMode="linear" dur="1s" fill="remove" restart="always" values="#1F36C7;#F752C7;#1F36C7">
   </animate>
  </g>
  <g id="cycle">
   <path class="st0" d="M75.3,22.2c0,3.2-2.2,4.5-4.2,4.5c-0.5,0-0.9-0.1-1.3-0.3c0.4-0.4,0.8-1,0.8-1.4c0-0.3-0.2-0.4-0.5-0.4
			c-0.2,0-0.7,0.1-1.1,0.1c-1,0-1.8-0.4-2.7-1.3c-0.6,0.9-0.9,2.1-0.9,3.3c0,1.9,0.7,3.8,1.5,3.9c0.4,0,0.4-1.3,1.1-1.3
			c0.2,0,1,0.6,2.7,0.6c2.5,0,5.3-1.5,5.3-5.4C75.9,24,75.7,22.8,75.3,22.2L75.3,22.2z">
   </path>
   <path class="st0" d="M69.6,20.2c0.5,0,1.5,0.2,1.8,0.7c-0.4,0.2-0.8,0.7-0.8,1.1c0,0.2,0.1,0.4,0.3,0.5c0.9,0.4,1.4,1.1,1.7,1.7
			c1.6-0.9,2.2-3.4,2.2-4.8c0-0.4,0-1-0.4-1c-0.3,0-0.6,0.4-1,0.4c-0.3,0-1.2-1.2-3.4-1.2c-2.5,0-3.6,1.9-3.6,3.5
			c0,0.4,0.1,0.9,0.2,1.2C67.1,21.3,68.1,20.2,69.6,20.2L69.6,20.2z">
   </path>
   <animate accumulate="none" additive="replace" attributeName="fill" begin="o1.begin+4.9s" calcMode="linear" dur="1s" fill="remove" restart="always" values="#1F36C7;#47C8FF;#1F36C7">
   </animate>
  </g>
  <path id="DNA" class="st0" d="M44.3,22.3c-1.8,0-3.4,1.5-4.6,3.5c0.1-0.4,0.1-0.8,0.1-1.2c0-2.8-1.5-5.2-4.2-5.2
		c-2.2,0-4.3,1.3-5.1,3.9c0.2-0.2,1-0.7,1.6-0.7c0.7,0,0.9,0.6,0.9,1.6c0,0.6-0.1,1.4-0.4,2.1c-0.4,1.2-1.2,1.5-1.6,1.5
		c-1.7,0-0.9-2.9-1.8-2.9c-0.7,0-0.9,1.6-0.9,2.2c0,2,1.3,4.1,4.2,4.1c3.1,0,4.8-1.5,6.6-3.4c0.4,2.1,1.5,5.8,4.6,5.8
		c1.7,0,2.9-1.4,3-3.1c-0.2,0.2-0.5,0.4-0.9,0.4c-0.6,0-0.8-0.9-0.8-1.7c0-1.3,0.4-2.7,1-2.7c0.3,0,0.5,0.2,0.6,1.2
		c0.1,0.7,0,1.6,0.5,1.6s0.7-1.5,0.7-2.4C47.7,24.3,46.6,22.2,44.3,22.3L44.3,22.3z M34,29.1c-0.3,0-0.4-0.3-0.4-0.5
		c0-1.4,1.5-7.6,2.6-7.6c0.2,0,0.3,0.2,0.3,0.5C36.5,22.6,35.2,29.1,34,29.1z M38.6,26.4c-0.9,1-1.4,1.5-1.8,1.5
		c-0.2,0-0.4-0.4-0.4-0.8c0-0.7,0.5-3.6,1.6-3.6c0.4,0,0.7,0.8,0.7,1.5C38.7,25.6,38.7,26,38.6,26.4z M40.7,28.9
		c-0.3,0-0.6-0.6-0.6-1.8c0.6-1,0.9-1.4,1.3-1.4c0.1,0,0.3,0.1,0.3,0.7C41.6,27.7,41.1,28.9,40.7,28.9z M42.5,31
		c-0.2,0-0.4-0.3-0.4-1.1c0-1.9,1.2-5.4,1.9-5.4c0.2,0,0.3,0.5,0.3,1C44.4,27.6,43.4,31,42.5,31z	">
   <animate accumulate="none" additive="replace" attributeName="fill" begin="o1.begin+4.95s" calcMode="linear" dur="1s" fill="remove" restart="always" values="#1F36C7;#E60067;#1F36C7">
   </animate>
  </path>
  <path id="lips" class="st0" d="M88.4,18.2c-0.7,0-1.8,0.8-2.6,0.8c-1.1,0-0.8-1.5-2-1.5c-0.3,0-0.6,0.1-0.9,0.3
		c-2.5,1.3-4.5,0.8-4.9,1.1c-0.1,0.1-0.2,0.1-0.2,0.4c0,2.8,2.8,7,7.4,7c3.2,0,5.8-1.1,5.8-3C90.9,21.7,89.4,18.2,88.4,18.2z
		 M85.5,23.6c-2.6,0-4.2-1.5-4.2-2.4c0-0.1,0.1-0.2,0.2-0.2c0.4,0,1.5,0.6,3,0.8c1.7,0.3,2.6,0.3,3.1,0.3s0.7,0.1,0.7,0.3
		C88.2,22.9,87,23.6,85.5,23.6z	">
   <animate accumulate="none" additive="replace" attributeName="fill" begin="o1.begin+5s" calcMode="linear" dur="1s" fill="remove" restart="always" values="#1F36C7;#EB0000;#1F36C7">
   </animate>
  </path>
  <path id="dove" class="st0" d="M102.4,1.4c-1.8,0-2-0.5-3.2-0.5c-1.4,0-2.4,1-2.4,2.5c0,0.5,0.2,1.3,0.2,2.3c0,1.2-0.2,2.4-1.3,2.4
		c-1,0-1.4-0.7-1.4-1.5c0-1.4,0.7-2.4,0.7-3.3c0-1.7-2-2.2-4.2-2.2c-2.6,0-5.4,0.7-5.4,1.1c0,0.6,3.7,0.2,6.4,3.7
		c-1.7,0-5,0.8-5,1.3c0,0.6,6,1.2,6,3.7c0,1.6-1.3,1.8-1.8,1.8c-2,0-3-2.1-3.5-2.1c-0.1,0-0.3,0.1-0.3,0.3c0,0.3,0.3,1.2,0.3,2.1
		c0,2.3-2.5,2.5-2.5,3c0,0.2,0.1,0.2,0.4,0.3c1.8,0.3,3.7,0.4,5.4,0.4c6.4,0,11.5-2,11.5-7.6c0-3.1-1-4.1-1-5.6
		C101.1,3,101.5,1.9,102.4,1.4z M93.5,13.6h-1.3c4.1-0.7,6.4-3.1,6.4-6.3c0.9,0.3,1.5,1.2,1.5,2.2C100,11.4,98.3,13.6,93.5,13.6
		L93.5,13.6z M99.2,3.9c-0.5,0-0.9-0.4-0.9-0.9s0.4-0.9,0.9-0.9s0.9,0.4,0.9,0.9S99.7,3.9,99.2,3.9z	">
   <animate accumulate="none" additive="replace" attributeName="fill" begin="o1.begin+5.05s" calcMode="linear" dur="1s" fill="remove" restart="always" values="#1F36C7;#00D7C4;#1F36C7">
   </animate>
  </path>
  <path id="spark" class="st0" d="M77.5,0.2c-2.4,0-4.2,1.2-5.2,1.2c-0.6,0-1.4-1.4-1.9-1.4C70.2,0,70,0.4,70,1v0.2
		c0,0.5-0.1,1.4-0.4,1.4c-0.9,0-4.3-2.4-4.3-1.6c0,0.8,2.3,3.3,2.3,3.9c0,0.6-2.2,1.2-2.2,1.7c0,0.8,2.4,0.9,2.4,1.9
		s-2.5,1.8-2.5,2.5c0,0.6,2.5,0.2,2.5,0.9S66,15.1,66,15.8c0,0.2,0,0.2,0.2,0.2c0.7,0,2.8-2.3,3.3-2.3c0.6,0,0.7,1.4,0.8,2.2
		c0.1,0.4,0.1,0.5,0.3,0.5c0.4,0,1.1-1.6,1.6-1.6c0.7,0,2.5,1.9,5.6,1.9c4.4,0,8.5-3,8.5-8.3C86.4,3.2,82.6,0.2,77.5,0.2L77.5,0.2z
		 M71.4,11.6c-0.1,0-0.2-0.1-0.2-0.3l-0.1-1.4c0-0.1-0.1-0.3-0.3-0.3h-1.5c-0.2,0-0.3,0-0.3-0.1c0-0.3,1.5-1.3,1.5-1.5
		c0-0.4-1.4-1.1-1.4-1.6c0-0.1,0.1-0.1,0.2-0.1c0.4,0,1.1,0.1,1.6,0.1s0.5-2,0.9-2c0.3,0,0.7,1.9,1.1,1.9c0.5,0,1.3-0.5,1.7-0.5
		c0.1,0,0.1,0,0.1,0.1c0,0.2-0.9,1.2-0.9,1.5s2,0.7,2,1c0,0.4-2.1,0.3-2.1,0.6c0,0.2,0.8,1.2,0.8,1.6c0,0.1,0,0.1-0.1,0.1
		c-0.3,0-1.4-0.5-1.7-0.5C72.3,10.2,71.7,11.6,71.4,11.6z M77.6,14.7c-2.5,0-4.2-1.2-4.2-1.9c0-0.3,0.2-0.5,0.5-0.5
		c0.8,0,2.5,1.2,3.1,1.2c0.1,0,0.3-0.1,0.3-0.3c0-0.6-0.6-1.7-0.6-2.2c0-0.1,0.1-0.2,0.3-0.2c1,0,2.4,0.4,3.2,0.4
		c0.3,0,0.3-0.1,0.3-0.3c0-0.8-2.4-2.3-2.4-2.8C78.1,7.7,81,7,81,6.4c0-0.7-4-0.2-4-0.9c0-0.5,0.8-1.3,0.8-1.7
		c0-0.2-0.1-0.2-0.4-0.2s-2.1,0.7-2.8,0.7c-0.4,0-0.8-0.1-0.8-0.6c0-0.8,1.4-1.7,3.6-1.7c3.6,0,5.7,2.4,5.7,6.4
		C83.2,13.4,79.6,14.7,77.6,14.7z	">
   <animate accumulate="none" additive="replace" attributeName="fill" begin="o1.begin+5.1s" calcMode="linear" dur="1.5s" fill="remove" restart="always" values="#1F36C7;#FCA6DE;#1F36C7">
   </animate>
  </path>
  <g id="sun">
   <path class="st0" d="M39.6,10.4c1.4,0,5.6,1.9,7.5,1.9c0.7,0,1.1-0.4,1.1-0.8c0-2.2-5.9-6.1-6-7.7c0-0.2,0.1-0.3,0.2-0.4
			c1-1.1,5.2-1.8,5.2-2.7c0-0.5-0.9-0.5-1.3-0.5c-3.4,0-8.3,1.2-8.3,2.4s4.4,4.2,4.4,5.7c0,0.4-0.3,0.5-0.7,0.5
			c-1.2,0-3.9-1.5-5.2-1.5c-0.6,0-0.8,0.4-0.8,1c0,1.7,2.1,5,2.1,6c0,0.1,0,0.3-0.2,0.3c-0.7,0-3.7-3.6-4.8-3.6
			c-0.4,0-0.4,0.5-0.4,1.3v1.2c0,0.8,0,1.3-0.4,1.3c-0.9,0-1.4-2.6-2.3-2.6s-1.1,4.7-2,4.7c-1.1,0-0.2-5.1-1.2-5.1
			c-1.1,0-2.4,3.4-3.2,3.4c-0.3,0-0.4-0.3-0.4-0.5c0-1,0.6-2.7,0.6-3.7c0-0.5-0.1-0.8-0.6-0.8c-1.1,0-3.6,1.8-4.5,1.8
			c-0.1,0-0.3-0.1-0.3-0.2c0-0.9,4-3.6,4-4.8s-5.5-0.4-5.5-1.8c0-1.1,3.9-2.3,3.9-3.5c0-1-4.6-1.5-6.4-1.5c-2.1,0-3.3,0.3-3.3,0.9
			c0,0.9,4.9,1.2,4.9,2S10.6,6,10.6,7.2c0,1.1,7.1,0.1,7.1,1.2c0,1.2-6.2,6.5-6.2,8.3c0,0.4,0.3,0.6,0.7,0.6c1.9,0,6.8-3.6,8.1-3.6
			c0.5,0,0.5,0.6,0.5,1.1c0,0.9-0.3,2.4-0.3,3.4c0,0.8,0.2,1.4,0.9,1.4c1.3,0,2.6-2.3,3.5-2.3c1.2,0,0.5,6.6,2.2,6.6
			c1.5,0,2.1-7.2,3-7.2s1.7,2.1,2.6,2.1c1.1,0,0.6-3.6,1.7-3.6c1.3,0,4.9,4.3,6.6,4.3c0.5,0,0.7-0.4,0.7-0.9c0-1.9-2.7-6.2-2.7-7.6
			C39.1,10.5,39.2,10.4,39.6,10.4L39.6,10.4z">
   </path>
   <path class="st0" d="M41.9,12.9c-0.1,0-0.2,0.1-0.2,0.2c0,1.3,4.6,7.4,5.4,7.4c0.7,0,1.3-1.3,1.3-2.3c0-0.3-0.1-0.6-0.2-0.8
			C47.5,16.4,42.9,12.9,41.9,12.9z M15,9.4C15,9.1,14.4,9,13.9,9c-0.8,0-1.9,0.2-2.4,0.6c-0.4,0.3-0.7,1.3-0.7,2
			c0,0.4,0.1,0.8,0.5,0.8C12.2,12.5,15,10.1,15,9.4z M21.5,4.9c0.8,0,2.1-0.4,3-0.4c0.5,0,1,0.1,1,0.6c0,0.9-2,2.5-2,3.2
			c0,0.2,0.2,0.3,0.4,0.3c0.7,0,2-1.8,3.1-1.8c1.9,0,0.7,4.1,1.7,4.1c1.1,0,0.6-4,2.2-4c1.3,0,2.2,2.8,3.1,2.8
			c0.2,0,0.4-0.2,0.4-0.4c0-0.8-1.1-2.3-1.1-3.3c0-0.6,0.4-0.9,1-0.9c0.8,0,2,0.5,2.6,0.5c0.2,0,0.4-0.1,0.4-0.3
			c0-0.9-3.2-1.8-3.2-2.9c0-1.1,1.8-1.1,1.8-1.6c0-0.2-1.1-0.4-2.6-0.4c-2.4,0-2,1.9-3.9,1.9s-1.4-2-3.8-2c-1.5,0-2.8,0.3-2.8,0.6
			c0,0.4,1.7,0.2,1.7,1.4c0,1.3-3.7,1.6-3.7,2.4C20.8,4.8,21.1,4.9,21.5,4.9z M44.4,4.4c0,0.6,2.3,2,3.3,2c0.6,0,0.8-0.8,0.8-1.7
			c0-1.1-0.5-1.1-1.4-1.1C45.9,3.6,44.4,3.9,44.4,4.4z">
   </path>
   <animate accumulate="none" additive="replace" attributeName="fill" begin="o1.begin+5.15s" calcMode="linear" dur="1s" fill="remove" restart="always" values="#1F36C7;#FFE300;#1F36C7">
   </animate>
  </g>
 </g>
</svg>